# Apple ModelIO OBJ File: arrow
mtllib arrow.mtl
g 
v 0.4939 0.5 -0.05
v 0.4939 -0.5 -0.05
v 0.4939 -0.5 0.05
v 0.4939 0.5 0.05
v 0.9939 0.000517 0.05
v 0.9939 0.000517 -0.05
vn -1 0 0
vn 0.7067 0.7075 0
vn 0.7075 -0.7067 0
vn 0 0 1
vn 0 0 -1
vt 0 1
vt 0 0
vt 1 0
vt 1 1
usemtl material_1
f 1/1/1 2/2/1 3/3/1 4/4/1 
f 1/1/2 4/2/2 5/3/2 6/4/2 
f 3/1/3 2/2/3 6/3/3 5/4/3 
f 4/1/4 3/2/4 5/3/4 
f 6/1/5 2/3/5 1/4/5 
s off
g _1
v 0.5 0.25 0.05
v 0.5 -0.25 0.05
v 0.5 -0.25 -0.05
v 0.5 0.25 -0.05
v -0.5 0.25 -0.05
v -0.5 -0.25 -0.05
v -0.5 -0.25 0.05
v -0.5 0.25 0.05
vn 1 0 0
vn -1 0 0
vn 0 1 0
vn 0 -1 0
vn 0 0 1
vn 0 0 -1
vt 0 1
vt 0 0
vt 1 0
vt 1 1
usemtl material_2
f 7/5/6 8/6/6 9/7/6 10/8/6 
f 11/5/7 12/6/7 13/7/7 14/8/7 
f 11/5/8 14/6/8 7/7/8 10/8/8 
f 13/5/9 12/6/9 9/7/9 8/8/9 
f 14/5/10 13/6/10 8/7/10 7/8/10 
f 10/5/11 9/6/11 12/7/11 11/8/11 
s off
